<svg xmlns="http://www.w3.org/2000/svg" style="display:none" aria-hidden="true">
<!--
  MAL DS · iconos
  Un solo sprite de trazo, 24×24, grosor 2, puntas redondas. Se dibujaron
  para este sistema; ningún emoji en la interfaz.

  Uso:  <svg class="icono"><use href="#i-casa"/></svg>
  mal.js inyecta este archivo en la página la primera vez que ve un
  `.icono`, así que el `href` puede ser solo el «#id».
-->
<defs>
<g id="i-base" fill="none" stroke="currentColor" stroke-width="2" stroke-linecap="round" stroke-linejoin="round"/>
</defs>
<symbol id="i-casa" viewBox="0 0 24 24"><path fill="none" stroke="currentColor" stroke-width="2" stroke-linecap="round" stroke-linejoin="round" d="M3 11l9-8 9 8v9a1 1 0 0 1-1 1h-5v-6h-6v6H4a1 1 0 0 1-1-1z"/></symbol>
<symbol id="i-calendario" viewBox="0 0 24 24"><path fill="none" stroke="currentColor" stroke-width="2" stroke-linecap="round" stroke-linejoin="round" d="M4 5h16v15H4zM4 10h16M8 3v4M16 3v4"/></symbol>
<symbol id="i-bolsa" viewBox="0 0 24 24"><path fill="none" stroke="currentColor" stroke-width="2" stroke-linecap="round" stroke-linejoin="round" d="M6 8h12l1 13H5zM9 8V6a3 3 0 0 1 6 0v2"/></symbol>
<symbol id="i-hoja" viewBox="0 0 24 24"><path fill="none" stroke="currentColor" stroke-width="2" stroke-linecap="round" stroke-linejoin="round" d="M4 20c0-9 5-14 16-16-1 10-6 15-14 16M4 20l9-9"/></symbol>
<symbol id="i-usuario" viewBox="0 0 24 24"><path fill="none" stroke="currentColor" stroke-width="2" stroke-linecap="round" stroke-linejoin="round" d="M20 21a8 8 0 0 0-16 0M12 13a4 4 0 1 0 0-8 4 4 0 0 0 0 8z"/></symbol>
<symbol id="i-ajustes" viewBox="0 0 24 24"><path fill="none" stroke="currentColor" stroke-width="2" stroke-linecap="round" stroke-linejoin="round" d="M4 7h10M18 7h2M4 17h4M12 17h8M14 5v4M8 15v4"/></symbol>
<symbol id="i-info" viewBox="0 0 24 24"><path fill="none" stroke="currentColor" stroke-width="2" stroke-linecap="round" stroke-linejoin="round" d="M12 22a10 10 0 1 0 0-20 10 10 0 0 0 0 20zM12 11v6M12 8h.01"/></symbol>
<symbol id="i-alerta" viewBox="0 0 24 24"><path fill="none" stroke="currentColor" stroke-width="2" stroke-linecap="round" stroke-linejoin="round" d="M12 3l10 18H2zM12 10v4M12 18h.01"/></symbol>
<symbol id="i-check" viewBox="0 0 24 24"><path fill="none" stroke="currentColor" stroke-width="2" stroke-linecap="round" stroke-linejoin="round" d="M5 12l5 5L20 7"/></symbol>
<symbol id="i-mas" viewBox="0 0 24 24"><path fill="none" stroke="currentColor" stroke-width="2" stroke-linecap="round" stroke-linejoin="round" d="M12 5v14M5 12h14"/></symbol>
<symbol id="i-menos" viewBox="0 0 24 24"><path fill="none" stroke="currentColor" stroke-width="2" stroke-linecap="round" stroke-linejoin="round" d="M5 12h14"/></symbol>
<symbol id="i-cerrar" viewBox="0 0 24 24"><path fill="none" stroke="currentColor" stroke-width="2" stroke-linecap="round" stroke-linejoin="round" d="M6 6l12 12M18 6L6 18"/></symbol>
<symbol id="i-menu" viewBox="0 0 24 24"><path fill="none" stroke="currentColor" stroke-width="2" stroke-linecap="round" stroke-linejoin="round" d="M4 7h16M4 12h16M4 17h16"/></symbol>
<symbol id="i-buscar" viewBox="0 0 24 24"><path fill="none" stroke="currentColor" stroke-width="2" stroke-linecap="round" stroke-linejoin="round" d="M11 18a7 7 0 1 0 0-14 7 7 0 0 0 0 14zM21 21l-5-5"/></symbol>
<symbol id="i-flecha-der" viewBox="0 0 24 24"><path fill="none" stroke="currentColor" stroke-width="2" stroke-linecap="round" stroke-linejoin="round" d="M5 12h14M13 6l6 6-6 6"/></symbol>
<symbol id="i-flecha-izq" viewBox="0 0 24 24"><path fill="none" stroke="currentColor" stroke-width="2" stroke-linecap="round" stroke-linejoin="round" d="M19 12H5M11 6l-6 6 6 6"/></symbol>
<symbol id="i-flecha-arriba" viewBox="0 0 24 24"><path fill="none" stroke="currentColor" stroke-width="2" stroke-linecap="round" stroke-linejoin="round" d="M12 19V5M6 11l6-6 6 6"/></symbol>
<symbol id="i-flecha-abajo" viewBox="0 0 24 24"><path fill="none" stroke="currentColor" stroke-width="2" stroke-linecap="round" stroke-linejoin="round" d="M12 5v14M6 13l6 6 6-6"/></symbol>
<symbol id="i-chevron-der" viewBox="0 0 24 24"><path fill="none" stroke="currentColor" stroke-width="2" stroke-linecap="round" stroke-linejoin="round" d="M9 6l6 6-6 6"/></symbol>
<symbol id="i-chevron-izq" viewBox="0 0 24 24"><path fill="none" stroke="currentColor" stroke-width="2" stroke-linecap="round" stroke-linejoin="round" d="M15 6l-6 6 6 6"/></symbol>
<symbol id="i-chevron-abajo" viewBox="0 0 24 24"><path fill="none" stroke="currentColor" stroke-width="2" stroke-linecap="round" stroke-linejoin="round" d="M6 9l6 6 6-6"/></symbol>
<symbol id="i-chevron-arriba" viewBox="0 0 24 24"><path fill="none" stroke="currentColor" stroke-width="2" stroke-linecap="round" stroke-linejoin="round" d="M6 15l6-6 6 6"/></symbol>
<symbol id="i-externo" viewBox="0 0 24 24"><path fill="none" stroke="currentColor" stroke-width="2" stroke-linecap="round" stroke-linejoin="round" d="M14 4h6v6M20 4l-9 9M19 14v6H4V5h6"/></symbol>
<symbol id="i-copiar" viewBox="0 0 24 24"><path fill="none" stroke="currentColor" stroke-width="2" stroke-linecap="round" stroke-linejoin="round" d="M9 9h11v11H9zM5 15V4h11"/></symbol>
<symbol id="i-play" viewBox="0 0 24 24"><path fill="none" stroke="currentColor" stroke-width="2" stroke-linecap="round" stroke-linejoin="round" d="M7 5l12 7-12 7z"/></symbol>
<symbol id="i-pausa" viewBox="0 0 24 24"><path fill="none" stroke="currentColor" stroke-width="2" stroke-linecap="round" stroke-linejoin="round" d="M8 5v14M16 5v14"/></symbol>
<symbol id="i-reiniciar" viewBox="0 0 24 24"><path fill="none" stroke="currentColor" stroke-width="2" stroke-linecap="round" stroke-linejoin="round" d="M4 12a8 8 0 1 0 2.3-5.7M4 4v5h5"/></symbol>
<symbol id="i-salir" viewBox="0 0 24 24"><path fill="none" stroke="currentColor" stroke-width="2" stroke-linecap="round" stroke-linejoin="round" d="M10 17l5-5-5-5M15 12H3M21 4v16"/></symbol>
<symbol id="i-rayo" viewBox="0 0 24 24"><path fill="none" stroke="currentColor" stroke-width="2" stroke-linecap="round" stroke-linejoin="round" d="M13 2L4 14h7l-1 8 9-12h-7z"/></symbol>
<symbol id="i-escudo" viewBox="0 0 24 24"><path fill="none" stroke="currentColor" stroke-width="2" stroke-linecap="round" stroke-linejoin="round" d="M12 2l8 4v6c0 5-3.5 8.5-8 10-4.5-1.5-8-5-8-10V6z"/></symbol>
<symbol id="i-altavoz" viewBox="0 0 24 24"><path fill="none" stroke="currentColor" stroke-width="2" stroke-linecap="round" stroke-linejoin="round" d="M4 9v6h4l5 4V5L8 9zM16 9a4 4 0 0 1 0 6"/></symbol>
<symbol id="i-documento" viewBox="0 0 24 24"><path fill="none" stroke="currentColor" stroke-width="2" stroke-linecap="round" stroke-linejoin="round" d="M6 2h8l5 5v15H6zM14 2v5h5M9 13h6M9 17h6"/></symbol>
<symbol id="i-corazon" viewBox="0 0 24 24"><path fill="none" stroke="currentColor" stroke-width="2" stroke-linecap="round" stroke-linejoin="round" d="M12 21s-8-5-8-11a4 4 0 0 1 8-1 4 4 0 0 1 8 1c0 6-8 11-8 11z"/></symbol>
<symbol id="i-estrella" viewBox="0 0 24 24"><path fill="none" stroke="currentColor" stroke-width="2" stroke-linecap="round" stroke-linejoin="round" d="M12 3l2.8 6 6.2.7-4.6 4.3 1.3 6.3L12 17l-5.7 3.3 1.3-6.3L3 9.7 9.2 9z"/></symbol>
<symbol id="i-sol" viewBox="0 0 24 24"><path fill="none" stroke="currentColor" stroke-width="2" stroke-linecap="round" stroke-linejoin="round" d="M12 16a4 4 0 1 0 0-8 4 4 0 0 0 0 8zM12 2v2M12 20v2M4.9 4.9l1.4 1.4M17.7 17.7l1.4 1.4M2 12h2M20 12h2M4.9 19.1l1.4-1.4M17.7 6.3l1.4-1.4"/></symbol>
<symbol id="i-luna" viewBox="0 0 24 24"><path fill="none" stroke="currentColor" stroke-width="2" stroke-linecap="round" stroke-linejoin="round" d="M20 14.5A8 8 0 0 1 9.5 4a8 8 0 1 0 10.5 10.5z"/></symbol>
<symbol id="i-monitor" viewBox="0 0 24 24"><path fill="none" stroke="currentColor" stroke-width="2" stroke-linecap="round" stroke-linejoin="round" d="M3 4h18v12H3zM8 20h8M12 16v4"/></symbol>
<symbol id="i-reloj" viewBox="0 0 24 24"><path fill="none" stroke="currentColor" stroke-width="2" stroke-linecap="round" stroke-linejoin="round" d="M12 22a10 10 0 1 0 0-20 10 10 0 0 0 0 20zM12 7v5l3 2"/></symbol>
<symbol id="i-pin" viewBox="0 0 24 24"><path fill="none" stroke="currentColor" stroke-width="2" stroke-linecap="round" stroke-linejoin="round" d="M12 22s7-7 7-12a7 7 0 0 0-14 0c0 5 7 12 7 12zM12 12a2 2 0 1 0 0-4 2 2 0 0 0 0 4z"/></symbol>
<symbol id="i-teclado" viewBox="0 0 24 24"><path fill="none" stroke="currentColor" stroke-width="2" stroke-linecap="round" stroke-linejoin="round" d="M2 6h20v12H2zM6 10h.01M10 10h.01M14 10h.01M18 10h.01M8 14h8"/></symbol>
<symbol id="i-ojo" viewBox="0 0 24 24"><path fill="none" stroke="currentColor" stroke-width="2" stroke-linecap="round" stroke-linejoin="round" d="M2 12s4-7 10-7 10 7 10 7-4 7-10 7S2 12 2 12zM12 15a3 3 0 1 0 0-6 3 3 0 0 0 0 6z"/></symbol>
<symbol id="i-ojo-cerrado" viewBox="0 0 24 24"><path fill="none" stroke="currentColor" stroke-width="2" stroke-linecap="round" stroke-linejoin="round" d="M3 3l18 18M10.6 10.6a3 3 0 0 0 2.8 2.8M6.7 6.7C4 8.5 2 12 2 12s4 7 10 7c1.5 0 2.9-.4 4.1-1M9.9 5.2A10 10 0 0 1 12 5c6 0 10 7 10 7s-1 1.8-2.8 3.6"/></symbol>
<symbol id="i-candado" viewBox="0 0 24 24"><path fill="none" stroke="currentColor" stroke-width="2" stroke-linecap="round" stroke-linejoin="round" d="M5 11h14v10H5zM8 11V7a4 4 0 0 1 8 0v4"/></symbol>
<symbol id="i-camara" viewBox="0 0 24 24"><path fill="none" stroke="currentColor" stroke-width="2" stroke-linecap="round" stroke-linejoin="round" d="M4 8h3l2-3h6l2 3h3v11H4zM12 16a3 3 0 1 0 0-6 3 3 0 0 0 0 6z"/></symbol>
<symbol id="i-subir" viewBox="0 0 24 24"><path fill="none" stroke="currentColor" stroke-width="2" stroke-linecap="round" stroke-linejoin="round" d="M12 16V4M6 10l6-6 6 6M4 20h16"/></symbol>
<symbol id="i-descargar" viewBox="0 0 24 24"><path fill="none" stroke="currentColor" stroke-width="2" stroke-linecap="round" stroke-linejoin="round" d="M12 4v12M6 10l6 6 6-6M4 20h16"/></symbol>
<symbol id="i-filtro" viewBox="0 0 24 24"><path fill="none" stroke="currentColor" stroke-width="2" stroke-linecap="round" stroke-linejoin="round" d="M3 5h18l-7 8v6l-4 2v-8z"/></symbol>
<symbol id="i-cuadricula" viewBox="0 0 24 24"><path fill="none" stroke="currentColor" stroke-width="2" stroke-linecap="round" stroke-linejoin="round" d="M4 4h7v7H4zM13 4h7v7h-7zM4 13h7v7H4zM13 13h7v7h-7z"/></symbol>
<symbol id="i-lista" viewBox="0 0 24 24"><path fill="none" stroke="currentColor" stroke-width="2" stroke-linecap="round" stroke-linejoin="round" d="M8 6h13M8 12h13M8 18h13M3 6h.01M3 12h.01M3 18h.01"/></symbol>
<symbol id="i-comentario" viewBox="0 0 24 24"><path fill="none" stroke="currentColor" stroke-width="2" stroke-linecap="round" stroke-linejoin="round" d="M21 12a8 8 0 0 1-11.6 7.1L4 21l1.9-5.4A8 8 0 1 1 21 12z"/></symbol>
<symbol id="i-compartir" viewBox="0 0 24 24"><path fill="none" stroke="currentColor" stroke-width="2" stroke-linecap="round" stroke-linejoin="round" d="M4 12v8h16v-8M12 16V3M8 7l4-4 4 4"/></symbol>
<symbol id="i-etiqueta" viewBox="0 0 24 24"><path fill="none" stroke="currentColor" stroke-width="2" stroke-linecap="round" stroke-linejoin="round" d="M3 3h9l9 9-9 9-9-9zM8 8h.01"/></symbol>
<symbol id="i-mando" viewBox="0 0 24 24"><path fill="none" stroke="currentColor" stroke-width="2" stroke-linecap="round" stroke-linejoin="round" d="M6 9h12a4 4 0 0 1 4 4v2a3 3 0 0 1-5.4 1.8L15 15H9l-1.6 1.8A3 3 0 0 1 2 15v-2a4 4 0 0 1 4-4zM8 11v4M6 13h4M16 12h.01M18 14h.01"/></symbol>
<symbol id="i-trofeo" viewBox="0 0 24 24"><path fill="none" stroke="currentColor" stroke-width="2" stroke-linecap="round" stroke-linejoin="round" d="M8 4h8v5a4 4 0 0 1-8 0zM8 6H5a3 3 0 0 0 3 3M16 6h3a3 3 0 0 1-3 3M12 13v4M8 21h8M10 17h4v4"/></symbol>
<symbol id="i-editar" viewBox="0 0 24 24"><path fill="none" stroke="currentColor" stroke-width="2" stroke-linecap="round" stroke-linejoin="round" d="M4 20h4l10-10-4-4L4 16zM12 8l4 4"/></symbol>
<symbol id="i-papelera" viewBox="0 0 24 24"><path fill="none" stroke="currentColor" stroke-width="2" stroke-linecap="round" stroke-linejoin="round" d="M4 7h16M9 7V4h6v3M6 7l1 14h10l1-14M10 11v6M14 11v6"/></symbol>
<symbol id="i-balanza" viewBox="0 0 24 24"><path fill="none" stroke="currentColor" stroke-width="2" stroke-linecap="round" stroke-linejoin="round" d="M12 3v18M4 21h16M6 7h12M6 7l-3 6a3 3 0 0 0 6 0zM18 7l-3 6a3 3 0 0 0 6 0z"/></symbol>
<symbol id="i-tijeras" viewBox="0 0 24 24"><path fill="none" stroke="currentColor" stroke-width="2" stroke-linecap="round" stroke-linejoin="round" d="M6 9a3 3 0 1 0 0-6 3 3 0 0 0 0 6zM6 21a3 3 0 1 0 0-6 3 3 0 0 0 0 6zM20 4L8.1 15.9M14.5 14.5L20 20M8.1 8.1L12 12"/></symbol>
<symbol id="i-huella" viewBox="0 0 24 24"><path fill="none" stroke="currentColor" stroke-width="2" stroke-linecap="round" stroke-linejoin="round" d="M12 21c-3 0-5-2-5-4.5S9 13 12 13s5 1 5 3.5-2 4.5-5 4.5zM6 10a2 2 0 1 0 0-4 2 2 0 0 0 0 4zM18 10a2 2 0 1 0 0-4 2 2 0 0 0 0 4zM9.5 7a2 2 0 1 0 0-4 2 2 0 0 0 0 4zM14.5 7a2 2 0 1 0 0-4 2 2 0 0 0 0 4z"/></symbol>
<symbol id="i-portapapeles" viewBox="0 0 24 24"><path fill="none" stroke="currentColor" stroke-width="2" stroke-linecap="round" stroke-linejoin="round" d="M9 4h6v3H9zM7 5H5v16h14V5h-2M9 12h6M9 16h4"/></symbol>
<symbol id="i-periodico" viewBox="0 0 24 24"><path fill="none" stroke="currentColor" stroke-width="2" stroke-linecap="round" stroke-linejoin="round" d="M4 4h16v16H4zM4 9h16M8 13h4M8 17h8M14 13h2"/></symbol>
<symbol id="i-codigo" viewBox="0 0 24 24"><path fill="none" stroke="currentColor" stroke-width="2" stroke-linecap="round" stroke-linejoin="round" d="M8 8l-5 4 5 4M16 8l5 4-5 4M14 5l-4 14"/></symbol>
<symbol id="i-enlace" viewBox="0 0 24 24"><path fill="none" stroke="currentColor" stroke-width="2" stroke-linecap="round" stroke-linejoin="round" d="M10 14a4 4 0 0 0 5.7 0l3-3a4 4 0 0 0-5.7-5.7l-1.5 1.5M14 10a4 4 0 0 0-5.7 0l-3 3a4 4 0 0 0 5.7 5.7l1.5-1.5"/></symbol>
<symbol id="i-campana" viewBox="0 0 24 24"><path fill="none" stroke="currentColor" stroke-width="2" stroke-linecap="round" stroke-linejoin="round" d="M6 16v-5a6 6 0 0 1 12 0v5l2 2H4zM10 21h4"/></symbol>
<symbol id="i-correo" viewBox="0 0 24 24"><path fill="none" stroke="currentColor" stroke-width="2" stroke-linecap="round" stroke-linejoin="round" d="M3 5h18v14H3zM3 7l9 6 9-6"/></symbol>
<symbol id="i-globo" viewBox="0 0 24 24"><path fill="none" stroke="currentColor" stroke-width="2" stroke-linecap="round" stroke-linejoin="round" d="M12 22a10 10 0 1 0 0-20 10 10 0 0 0 0 20zM2 12h20M12 2c3 3 3 17 0 20M12 2c-3 3-3 17 0 20"/></symbol>
<symbol id="i-tarjeta" viewBox="0 0 24 24"><path fill="none" stroke="currentColor" stroke-width="2" stroke-linecap="round" stroke-linejoin="round" d="M3 6h18v12H3zM3 10h18M7 15h4"/></symbol>
<symbol id="i-billete" viewBox="0 0 24 24"><path fill="none" stroke="currentColor" stroke-width="2" stroke-linecap="round" stroke-linejoin="round" d="M2 7h20v10H2zM12 15a3 3 0 1 0 0-6 3 3 0 0 0 0 6zM6 12h.01M18 12h.01"/></symbol>
<symbol id="i-grafica" viewBox="0 0 24 24"><path fill="none" stroke="currentColor" stroke-width="2" stroke-linecap="round" stroke-linejoin="round" d="M4 20V10M10 20V4M16 20v-7M22 20H2"/></symbol>
<symbol id="i-telefono" viewBox="0 0 24 24"><path fill="none" stroke="currentColor" stroke-width="2" stroke-linecap="round" stroke-linejoin="round" d="M5 3h4l2 5-2.5 1.5a11 11 0 0 0 6 6L16 13l5 2v4a2 2 0 0 1-2 2A16 16 0 0 1 3 5a2 2 0 0 1 2-2z"/></symbol>
<symbol id="i-gota" viewBox="0 0 24 24"><path fill="none" stroke="currentColor" stroke-width="2" stroke-linecap="round" stroke-linejoin="round" d="M12 3s6 6.5 6 11a6 6 0 0 1-12 0c0-4.5 6-11 6-11z"/></symbol>
<symbol id="i-termometro" viewBox="0 0 24 24"><path fill="none" stroke="currentColor" stroke-width="2" stroke-linecap="round" stroke-linejoin="round" d="M14 14.8V5a2 2 0 0 0-4 0v9.8a4 4 0 1 0 4 0z"/></symbol>
<symbol id="i-nube" viewBox="0 0 24 24"><path fill="none" stroke="currentColor" stroke-width="2" stroke-linecap="round" stroke-linejoin="round" d="M7 18h10a4 4 0 0 0 .5-8A6 6 0 0 0 6 9.5 4 4 0 0 0 7 18z"/></symbol>
<symbol id="i-regalo" viewBox="0 0 24 24"><path fill="none" stroke="currentColor" stroke-width="2" stroke-linecap="round" stroke-linejoin="round" d="M4 10h16v11H4zM2 6h20v4H2zM12 6v15M12 6c-2-4-6-3-4 0M12 6c2-4 6-3 4 0"/></symbol>
<symbol id="i-cafe" viewBox="0 0 24 24"><path fill="none" stroke="currentColor" stroke-width="2" stroke-linecap="round" stroke-linejoin="round" d="M4 8h12v6a5 5 0 0 1-10 0zM16 9h2a2 2 0 0 1 0 4h-2M6 4v1M10 4v1"/></symbol>
<symbol id="i-maiz" viewBox="0 0 24 24"><path fill="none" stroke="currentColor" stroke-width="2" stroke-linecap="round" stroke-linejoin="round" d="M12 22c-3 0-5-4-5-10s2-10 5-10 5 4 5 10-2 10-5 10zM9 8h6M9 12h6M9 16h6M12 2v20"/></symbol>
<symbol id="i-semilla" viewBox="0 0 24 24"><path fill="none" stroke="currentColor" stroke-width="2" stroke-linecap="round" stroke-linejoin="round" d="M12 22v-8M12 14c-4 0-7-3-7-7 4 0 7 3 7 7zM12 14c4 0 7-3 7-7-4 0-7 3-7 7z"/></symbol>
<symbol id="i-marcador" viewBox="0 0 24 24"><path fill="none" stroke="currentColor" stroke-width="2" stroke-linecap="round" stroke-linejoin="round" d="M5 3h14v18l-7-4-7 4z"/></symbol>
<symbol id="i-vida" viewBox="0 0 24 24"><path fill="currentColor" stroke="currentColor" stroke-width="2" stroke-linejoin="round" d="M12 21s-8-5-8-11a4 4 0 0 1 8-1 4 4 0 0 1 8 1c0 6-8 11-8 11z"/></symbol>
<symbol id="i-punto" viewBox="0 0 24 24"><circle fill="currentColor" cx="12" cy="12" r="4"/></symbol>
<symbol id="i-cargando" viewBox="0 0 24 24"><path fill="none" stroke="currentColor" stroke-width="2" stroke-linecap="round" d="M12 3a9 9 0 1 0 9 9"/></symbol>
</svg>
